<svg xmlns="http://www.w3.org/2000/svg" width="815" height="329"  xmlns:v="https://vecta.io/nano"><path fill-rule="evenodd" stroke-width="3px" stroke="#ff9" fill="#000" d="M809.298 103.8c-3.338 2.537-7 3.8-11 3.8s-7.669-1.4-11-4.2c-3.338-2.8-5-6.063-5-9.8 0-7.731 5.062-11.6 15.2-11.6 4 0 7.8 1.337 11.4 4 3.6 2.669 5.4 5.669 5.4 9 0 3.337-1.669 6.269-5 8.8zm-19.4 33.4c0 1.6-10.538 20.537-31.6 56.8-20.538 39.2-36.4 66.531-47.6 82-24.263 34.662-47.063 52-68.4 52-8 0-15.4-2.6-22.2-7.8s-10.2-10.4-10.2-15.6 1.2-7.8 3.6-7.8c.268 0 3 3.4 8.2 10.2s11.268 10.2 18.2 10.2c21.337 0 45.6-24.138 72.8-72.4 16.8-30.131 28.262-54.531 34.4-73.2-3.2 3.738-8.738 9.2-16.6 16.4l-3.875 3.47c-.831.923-1.733 1.896-2.724 2.93l-14.6 15.2c-3.6 3.737-6.069 6.2-7.4 7.4l-7.4 6.8c-3.6 3.337-6.338 5.669-8.2 7-1.869 1.337-4.538 3.337-8 6-3.469 2.669-6.538 4.6-9.2 5.8l-9.2 4.2c-5.6 2.4-12.269 3.6-20 3.6-13.6 0-20.4-8.8-20.4-26.4 0-5.303 1.075-11.363 3.208-18.167-25.433 27.312-46.772 40.967-64.007 40.967-8.8 0-16.269-2.063-22.4-6.2-6.137-4.131-9.2-10.531-9.2-19.2 0-6.374 1.236-13.515 3.69-21.409l-2.488 2.809c-26.669 29.337-48.938 44-66.8 44-8.8 0-16.269-2.063-22.4-6.2-6.138-4.131-9.2-10.531-9.2-19.2 0-6.171 1.17-13.069 3.471-20.666-9.987 10.244-21.004 19.737-33.067 28.466-20.269 14.669-37.469 22-51.6 22-2.937 0-5.6-.4-8-1.2-17.062-4.8-25.6-14.4-25.6-28.8 0-18.663 11.738-40.263 35.2-64.8 23.463-24.531 44.531-36.8 63.2-36.8 6.131 0 11.131 1.669 15 5 3.863 3.337 5.8 7.4 5.8 12.2 0 14.937-11.269 29.2-33.8 42.8-22.537 13.6-40.869 20.4-55 20.4-2.137 0-4-.263-5.6-.8-4 7.2-6 14.8-6 22.8 0 13.869 6.6 20.8 19.8 20.8s30.331-8.931 51.4-26.8c13.799-11.084 25.856-22.754 36.204-34.995 7.719-16.257 18.579-35.655 32.592-58.205 31.2-50.663 53.331-76 66.4-76 2.662 0 5.4 1 8.2 3s4.331 4.2 4.6 6.6l-35.4 47.6c-17.469 23.469-29.538 40.338-36.2 50.6l-15 23c-3.338 5.069-5.8 9-7.4 11.8s-3.469 6.469-5.6 11c-4.538 9.069-6.8 17.6-6.8 25.6s4.4 12 13.2 12 20.131-4.663 34-14c13.862-9.331 27.331-22 40.4-38 1.469-1.958 2.796-3.462 3.984-4.521 7.733-16.355 18.664-35.907 32.814-58.679 31.2-50.663 53.331-76 66.4-76 2.663 0 5.4 1 8.2 3s4.331 4.2 4.6 6.6L614.9 104c-17.469 23.469-29.537 40.338-36.2 50.6l-15 23c-3.337 5.069-5.8 9-7.4 11.8s-3.469 6.469-5.6 11c-4.537 9.069-6.8 17.6-6.8 25.6s4.4 12 13.2 12 20.131-4.663 34-14c13.338-8.978 26.31-21.055 38.914-36.208 3.495-7.254 7.843-15.109 13.085-23.592 15.731-25.463 28.4-38.331 38-38.6 2.662 0 5.662 1.069 9 3.2 3.331 2.137 5 4.269 5 6.4-1.338 1.869-2.938 3.937-4.8 6.2l-6 7.4c-2.138 2.669-5.069 6.469-8.8 11.4l-10.8 14.2c-20 25.869-30 43.669-30 53.4 0 9.737 3.331 14.6 10 14.6 5.6 0 13.2-3.062 22.8-9.2 18.81-11.641 34.284-24.238 46.514-37.766.858-1.998 2.81-4.338 5.885-7.034l.544-.493c.082-.103.175-.204.257-.307 2.97-3.795 5.35-6.413 7.146-7.86 2.756-3.433 5.838-7.607 9.253-12.54 7.2-10.4 11.462-16.131 12.8-17.2l13.2-14c5.331-5.063 11.131-7.6 17.4-7.6 6.262 0 9.4 2.938 9.4 8.8zm-438.792 54c10.131 0 23.663-5.4 40.6-16.2 16.931-10.8 27.531-22.6 31.8-35.4.531-1.331.8-2.531.8-3.6 0-3.2-3.4-4.8-10.2-4.8s-16.469 5.2-29 15.6c-16.8 13.869-29.869 28.4-39.2 43.6 1.6.537 3.331.8 5.2.8zM748.093 90.4c-8.269 0-20.4.8-36.4 2.4s-28 2.4-36 2.4c-1.337 0-3-1.2-5-3.6s-3.137-4.4-3.4-6c4.263-2.131 17.4-3.2 39.4-3.2s36.2 1.6 42.6 4.8c.8.538 1.2.937 1.2 1.2 0 1.338-.8 2-2.4 2zM396.307 32.8c-1.338 0-15.6-2.131-42.8-6.4-45.069 25.6-96.738 58.4-155 98.4-58.269 40-105.4 76.937-141.4 110.8l124.4-12.4c4.8-.262 11.731-.4 20.8-.4 33.331 0 59.6 3.2 78.8 9.6s28.8 14.931 28.8 25.6c0 6.4-3.869 13.462-11.6 21.2-10.138 9.331-17.069 14-20.8 14-1.338 0-2-1.138-2-3.4 0-2.269 1.531-4.8 4.6-7.6 3.062-2.8 4.6-5.4 4.6-7.8 0-8.269-12.4-15.869-37.2-22.8-25.869-7.463-50.138-11.2-72.8-11.2-22.669 0-49 2.2-79 6.6s-53.669 6.6-71 6.6h-2.8c-4.263 3.731-6.931 5.6-8 5.6-.531 0-.8-.469-.8-1.4 0-.937.8-2.737 2.4-5.4-9.863-.538-14.8-3.337-14.8-8.4 0-4 2.137-8.131 6.4-12.4 4.269-4.263 8-6.4 11.2-6.4.537 0 1.069.269 1.6.8 1.337 2.137 7.069 4 17.2 5.6 67.462-70.4 164.131-140.131 290-209.2l-12-2.4c-18.938-4.262-43.338-6.4-73.2-6.4-29.869 0-55.869 4-78 12-4.8 1.069-12 4-21.6 8.8-15.469 7.737-23.2 16.937-23.2 27.6 0 1.6.331 3.537 1 5.8.662 2.269.6 4.069-.2 5.4-1.069 1.6-2.869 2.4-5.4 2.4-2.538 0-4.938-1.862-7.2-5.6-2.269-3.731-3.4-7.731-3.4-12 0-4.262.662-8.663 2-13.2 5.062-17.062 21.462-29.6 49.2-37.6 14.131-4 37.8-6 71-6a554.87 554.87 0 0 1 98.6 8.8c4 .269 10.662 1.469 20 3.6l22-12c2.131-1.063 6.8-1.6 14-1.6s10.8 1.337 10.8 4c0 1.069-1.2 2-3.6 2.8-1.069.8-7.869 4.669-20.4 11.6l22.2 1.2c2.8 0 5.331-.662 7.6-2 2.262-1.331 3.062-3.331 2.4-6-.669-2.662-.469-4 .6-4 1.6 0 3.531 1.8 5.8 5.4 2.262 3.6 3.4 6.869 3.4 9.8 0 6.669-4.4 10-13.2 10z"/></svg>